HIERARCHY
ROOT joint_Root
{
	OFFSET 0.0 0.0 0.0
	CHANNELS 6 Xposition Yposition Zposition Zrotation Xrotation Yrotation 
	JOINT Hips
	{
		OFFSET -17.1583 93.1646 452.98
		CHANNELS 6 Xposition Yposition Zposition Zrotation Xrotation Yrotation 
		JOINT Spine
		{
			OFFSET 15.7357 0.0 0.0
			CHANNELS 6 Xposition Yposition Zposition Zrotation Xrotation Yrotation 
			JOINT Chest
			{
				OFFSET 8.98455 -0.406207 0.0
				CHANNELS 6 Xposition Yposition Zposition Zrotation Xrotation Yrotation 
				JOINT Neck
				{
					OFFSET 16.3773 0.0 0.0
					CHANNELS 6 Xposition Yposition Zposition Zrotation Xrotation Yrotation 
					JOINT Head
					{
						OFFSET 6.45672 0.0 0.0
						CHANNELS 6 Xposition Yposition Zposition Zrotation Xrotation Yrotation 
						End Site
						{
							OFFSET 0.0 0.0 0.0
						}
					}
				}
				JOINT Shoulder_L
				{
					OFFSET 12.9942 -0.242716 4.98039
					CHANNELS 6 Xposition Yposition Zposition Zrotation Xrotation Yrotation 
					JOINT UpperArm_L
					{
						OFFSET 5.34809 0.0 0.0
						CHANNELS 6 Xposition Yposition Zposition Zrotation Xrotation Yrotation 
						JOINT LowerArm_L
						{
							OFFSET 24.3286 1.87007e-05 0.0
							CHANNELS 6 Xposition Yposition Zposition Zrotation Xrotation Yrotation 
							JOINT Hand_L
							{
								OFFSET 22.2916 0.0 0.0
								CHANNELS 6 Xposition Yposition Zposition Zrotation Xrotation Yrotation 
								End Site
								{
									OFFSET 0.0 0.0 0.0
								}
							}
						}
					}
				}
				JOINT Shoulder_R
				{
					OFFSET 12.9945 -0.242716 -4.98039
					CHANNELS 6 Xposition Yposition Zposition Zrotation Xrotation Yrotation 
					JOINT UpperArm_R
					{
						OFFSET -5.34813 0.0 0.0
						CHANNELS 6 Xposition Yposition Zposition Zrotation Xrotation Yrotation 
						JOINT LowerArm_R
						{
							OFFSET -24.3289 0.000322201 0.0
							CHANNELS 6 Xposition Yposition Zposition Zrotation Xrotation Yrotation 
							JOINT Hand_R
							{
								OFFSET -22.2915 -0.000108084 0.0
								CHANNELS 6 Xposition Yposition Zposition Zrotation Xrotation Yrotation 
								End Site
								{
									OFFSET 0.0 0.0 0.0
								}
							}
						}
					}
				}
			}
		}
		JOINT UpperLeg_L
		{
			OFFSET -2.19248 -6.46944 0.0
			CHANNELS 6 Xposition Yposition Zposition Zrotation Xrotation Yrotation 
			JOINT LowerLeg_L
			{
				OFFSET 39.0811 0.0 -1.23785e-05
				CHANNELS 6 Xposition Yposition Zposition Zrotation Xrotation Yrotation 
				JOINT Foot_L
				{
					OFFSET 40.9854 0.0 -1.26872e-05
					CHANNELS 6 Xposition Yposition Zposition Zrotation Xrotation Yrotation 
					JOINT Toes_L
					{
						OFFSET 11.7543 0.0 0.0
						CHANNELS 6 Xposition Yposition Zposition Zrotation Xrotation Yrotation 
						End Site
						{
							OFFSET 0.0 0.0 0.0
						}
					}
				}
			}
		}
		JOINT UpperLeg_R
		{
			OFFSET -2.19251 6.46944 0.0
			CHANNELS 6 Xposition Yposition Zposition Zrotation Xrotation Yrotation 
			JOINT LowerLeg_R
			{
				OFFSET -39.0811 -0.00228153 -0.0401928
				CHANNELS 6 Xposition Yposition Zposition Zrotation Xrotation Yrotation 
				JOINT Foot_R
				{
					OFFSET -40.9854 0.0 0.0
					CHANNELS 6 Xposition Yposition Zposition Zrotation Xrotation Yrotation 
					JOINT Toes_R
					{
						OFFSET -11.7543 0.0 0.0
						CHANNELS 6 Xposition Yposition Zposition Zrotation Xrotation Yrotation 
						End Site
						{
							OFFSET 0.0 0.0 0.0
						}
					}
				}
			}
		}
	}
}
MOTION
Frames:	4
Frame Time:	0.0333333
0.000000 0.000000 0.000000 0.000000 0.000000 -0.000000 128.216000 91.615000 217.947000 -80.519000 46.143100 173.769000 15.735700 0.000005 -0.000001 61.515100 84.785300 -58.007900 8.984550 -0.406207 -0.000000 1.575350 -5.160760 7.083090 16.377300 -0.000001 -0.000001 9.124460 11.045700 0.416804 6.456720 -0.000001 -0.000000 5.136150 19.397700 -2.102490 12.994200 -0.242716 4.980390 -92.436800 6.869960 -70.415900 5.348090 -0.000007 -0.000001 -70.769600 2.047510 -9.868310 24.328600 0.000019 0.000005 26.070000 13.102900 -65.138600 22.291600 -0.000001 0.000005 55.531700 4.382530 18.500500 12.994500 -0.242716 -4.980390 89.904000 0.253354 -69.239300 -5.348130 -0.000001 -0.000004 -67.717200 -1.413400 13.960600 -24.328900 0.000322 -0.000009 0.710734 16.430100 -2.514980 -22.291500 -0.000108 -0.000004 41.650400 5.322220 -0.559754 -2.192480 -6.469440 -0.000000 174.858000 9.252720 6.890020 39.081100 -0.000007 -0.000012 -0.003006 0.012587 13.427100 40.985400 -0.000006 -0.000013 9.071790 14.877300 -66.695200 11.754300 -0.000000 0.000003 0.002457 0.093077 -12.802200 -2.192510 6.469440 -0.000001 174.811000 -2.411370 158.486000 -39.081100 -0.002282 -0.040193 0.014010 -0.020025 28.125600 -40.985400 0.000008 0.000006 -5.519550 -17.730100 -66.686400 -11.754300 -0.000006 -0.000006 -0.005474 0.233650 -7.088520
0.000000 0.000000 0.000000 0.000000 0.000000 -0.000000 131.201000 91.451300 216.584000 -81.477700 43.658200 174.093000 15.735700 0.000005 -0.000001 59.551200 84.776200 -56.309300 8.984550 -0.406207 -0.000000 1.411020 -5.471640 6.549560 16.377300 -0.000001 -0.000001 8.213770 10.718800 0.766578 6.456720 -0.000001 -0.000000 4.745370 19.042400 -1.816100 12.994200 -0.242716 4.980390 -92.218100 6.333360 -70.653300 5.348090 -0.000007 -0.000001 -70.555700 0.913480 -11.934100 24.328600 0.000019 0.000005 26.146500 11.983800 -67.073600 22.291600 -0.000001 0.000005 55.754400 4.351210 18.995200 12.994500 -0.242716 -4.980390 90.089500 -0.236962 -69.301300 -5.348130 -0.000001 -0.000004 -67.409400 -2.839000 16.542200 -24.328900 0.000322 -0.000009 0.635925 16.786000 -2.204620 -22.291500 -0.000108 -0.000004 41.858600 5.308660 -0.172463 -2.192480 -6.469440 -0.000000 175.556000 9.389960 8.207130 39.081100 -0.000007 -0.000012 -0.001071 0.004331 13.886800 40.985400 -0.000006 -0.000013 9.094100 17.409800 -67.243000 11.754300 -0.000000 0.000003 0.002386 0.066869 -13.864600 -2.192510 6.469440 -0.000001 174.321000 -3.202840 159.405000 -39.081100 -0.002282 -0.040193 0.012313 -0.029434 16.977500 -40.985400 0.000008 0.000006 -7.908630 -11.770300 -67.184200 -11.754300 -0.000006 -0.000006 -0.005876 0.237369 -6.936900
0.000000 0.000000 0.000000 0.000000 0.000000 -0.000000 134.343000 91.115700 214.936000 -81.914000 42.125400 174.265000 15.735700 0.000005 -0.000001 59.291400 84.690300 -56.219200 8.984550 -0.406207 -0.000000 1.529390 -5.587330 6.217670 16.377300 -0.000001 -0.000001 7.428570 10.643500 0.949521 6.456720 -0.000001 -0.000000 4.298910 18.928800 -1.804530 12.994200 -0.242716 4.980390 -92.225700 6.390800 -70.752300 5.348090 -0.000007 -0.000001 -70.346200 -0.633546 -13.148800 24.328600 0.000019 0.000005 26.237300 11.250700 -68.403600 22.291600 -0.000001 0.000005 56.310500 4.315590 19.549200 12.994500 -0.242716 -4.980390 90.235200 -0.633710 -69.632400 -5.348130 -0.000001 -0.000004 -67.292400 -3.441610 17.550300 -24.328900 0.000322 -0.000009 0.445736 16.738500 -1.550720 -22.291500 -0.000108 -0.000004 42.532000 5.300160 0.066726 -2.192480 -6.469440 -0.000000 176.342000 8.910160 9.521840 39.081100 -0.000007 -0.000012 0.000408 -0.001509 15.140800 40.985400 -0.000006 -0.000013 9.531260 19.145600 -67.873700 11.754300 -0.000000 0.000003 0.001098 0.021167 -15.718200 -2.192510 6.469440 -0.000001 175.053000 -2.517470 160.262000 -39.081100 -0.002282 -0.040193 0.010572 -0.050566 8.137410 -40.985400 0.000008 0.000006 -11.328800 -5.026840 -65.939900 -11.754300 -0.000006 -0.000006 -0.006944 0.246851 -6.550050
0.000000 0.000000 0.000000 0.000000 0.000000 -0.000000 137.725000 90.633100 212.887000 -82.063700 40.855000 174.655000 15.735700 0.000005 -0.000001 59.915800 84.506600 -56.911300 8.984550 -0.406207 -0.000000 1.905540 -5.657560 6.101530 16.377300 -0.000001 -0.000001 6.796790 10.637300 1.099990 6.456720 -0.000001 -0.000000 3.861360 18.974400 -2.112840 12.994200 -0.242716 4.980390 -92.287100 6.657570 -70.991400 5.348090 -0.000007 -0.000001 -70.606300 -2.137750 -13.267000 24.328600 0.000019 0.000005 26.490400 11.076200 -68.919100 22.291600 -0.000001 0.000005 56.507100 4.307790 19.670400 12.994500 -0.242716 -4.980390 90.282500 -0.773057 -69.926900 -5.348130 -0.000001 -0.000004 -67.212800 -3.301170 17.277200 -24.328900 0.000322 -0.000009 0.262543 15.902300 -0.961672 -22.291500 -0.000108 -0.000004 43.228600 5.292070 0.292819 -2.192480 -6.469440 -0.000000 177.126000 8.162040 11.193200 39.081100 -0.000007 -0.000012 0.000991 -0.003244 16.997600 40.985400 -0.000006 -0.000013 10.575800 20.300100 -68.210800 11.754300 -0.000000 0.000003 -0.003406 -0.045122 -18.412000 -2.192510 6.469440 -0.000001 176.838000 -0.739434 159.949000 -39.081100 -0.002282 -0.040193 0.004259 -0.009883 5.273600 -40.985400 0.000008 0.000006 -14.137600 0.971013 -65.271800 -11.754300 -0.000006 -0.000006 -0.006774 0.245377 -6.610210
